<?xml version="1.0" standalone="no"?>
<!DOCTYPE svg PUBLIC "-//W3C//DTD SVG 20010904//EN"
 "http://www.w3.org/TR/2001/REC-SVG-20010904/DTD/svg10.dtd">
<svg version="1.0" xmlns="http://www.w3.org/2000/svg"
 width="512.000000pt" height="512.000000pt" viewBox="0 0 512.000000 512.000000"
 preserveAspectRatio="xMidYMid meet">
<metadata>
Created by potrace 1.16, written by Peter Selinger 2001-2019
</metadata>
<g transform="translate(0.000000,512.000000) scale(0.100000,-0.100000)"
fill="#000000" stroke="none">
<path d="M2238 5105 c-851 -116 -1578 -628 -1960 -1380 -195 -384 -278 -731
-278 -1165 0 -436 85 -788 282 -1172 394 -768 1155 -1289 2016 -1379 220 -23
587 -4 797 42 384 83 774 271 1082 520 100 81 291 272 372 372 255 316 447
720 525 1107 48 239 61 594 31 827 -143 1088 -940 1957 -2010 2192 -231 50
-627 67 -857 36z m584 -521 c665 -86 1251 -503 1560 -1109 291 -573 291 -1257
1 -1828 -127 -249 -301 -470 -503 -639 -384 -322 -834 -488 -1320 -488 -619 0
-1205 283 -1593 770 -651 815 -585 1973 153 2710 318 319 731 525 1170 584
144 19 382 19 532 0z"/>
</g>
</svg>
