<?xml version="1.0" standalone="no"?>
<!DOCTYPE svg PUBLIC "-//W3C//DTD SVG 20010904//EN"
 "http://www.w3.org/TR/2001/REC-SVG-20010904/DTD/svg10.dtd">
<svg version="1.0" xmlns="http://www.w3.org/2000/svg"
 width="512.000000pt" height="512.000000pt" viewBox="0 0 512.000000 512.000000"
 preserveAspectRatio="xMidYMid meet">
<metadata>
Created by potrace 1.16, written by Peter Selinger 2001-2019
</metadata>
<g transform="translate(0.000000,512.000000) scale(0.100000,-0.100000)"
fill="#000000" stroke="none">
<path d="M1280 4270 l0 -430 -215 0 -215 0 0 -215 0 -215 105 0 105 0 0 -239
c0 -351 29 -478 150 -660 94 -139 228 -250 376 -310 l69 -28 6 -319 c7 -400
22 -478 135 -709 175 -357 506 -611 907 -696 144 -31 380 -31 524 0 341 72
633 268 822 551 95 142 155 281 197 460 17 70 18 178 21 1658 l3 1582 -215 0
-215 0 0 -1467 c-1 -822 -5 -1512 -10 -1568 -13 -135 -31 -202 -89 -320 -88
-179 -219 -309 -396 -395 -131 -64 -195 -80 -341 -87 -186 -9 -336 30 -501
129 -130 78 -275 246 -335 390 -63 148 -70 199 -75 494 l-5 270 76 22 c286 84
507 311 587 607 20 71 23 112 27 358 l4 277 104 0 104 0 0 215 0 215 -215 0
-215 0 0 430 0 430 -215 0 -215 0 0 -430 0 -430 -210 0 -210 0 0 430 0 430
-215 0 -215 0 0 -430z"/>
</g>
</svg>
