<?xml version="1.0" standalone="no"?>
<!DOCTYPE svg PUBLIC "-//W3C//DTD SVG 20010904//EN"
 "http://www.w3.org/TR/2001/REC-SVG-20010904/DTD/svg10.dtd">
<svg version="1.0" xmlns="http://www.w3.org/2000/svg"
 width="512.000000pt" height="512.000000pt" viewBox="0 0 512.000000 512.000000"
 preserveAspectRatio="xMidYMid meet">
<metadata>
Created by potrace 1.16, written by Peter Selinger 2001-2019
</metadata>
<g transform="translate(0.000000,512.000000) scale(0.100000,-0.100000)"
fill="#000000" stroke="none">
<path d="M150 3765 l0 -235 75 0 75 0 0 -1205 0 -1205 230 0 230 0 0 1205 0
1205 900 0 900 0 0 -1205 0 -1205 230 0 230 0 0 455 0 455 670 0 670 0 0 -455
0 -455 230 0 230 0 0 1205 0 1205 75 0 75 0 0 235 0 235 -2410 0 -2410 0 0
-235z m4660 0 l0 -75 -2250 0 -2250 0 0 75 0 75 2250 0 2250 0 0 -75z m-4210
-1360 l0 -1125 -70 0 -70 0 0 1125 0 1125 70 0 70 0 0 -1125z m2260 0 l0
-1125 -70 0 -70 0 0 1125 0 1125 70 0 70 0 0 -1125z m1500 830 l0 -295 -670 0
-670 0 0 295 0 295 670 0 670 0 0 -295z m300 -830 l0 -1125 -70 0 -70 0 0
1125 0 1125 70 0 70 0 0 -1125z m-300 80 l0 -295 -670 0 -670 0 0 295 0 295
670 0 670 0 0 -295z"/>
<path d="M3650 3347 c-20 -7 -44 -26 -57 -46 -76 -113 69 -240 171 -150 99 86
10 238 -114 196z"/>
<path d="M3633 2590 c-28 -11 -63 -66 -63 -98 0 -40 28 -90 59 -106 99 -52
203 30 172 136 -20 64 -98 96 -168 68z"/>
</g>
</svg>
