<?xml version="1.0" standalone="no"?>
<!DOCTYPE svg PUBLIC "-//W3C//DTD SVG 20010904//EN"
 "http://www.w3.org/TR/2001/REC-SVG-20010904/DTD/svg10.dtd">
<svg version="1.0" xmlns="http://www.w3.org/2000/svg"
 width="631.000000pt" height="453.000000pt" viewBox="0 0 631.000000 453.000000"
 preserveAspectRatio="xMidYMid meet">
<metadata>
Created by potrace 1.16, written by Peter Selinger 2001-2019
</metadata>
<g transform="translate(0.000000,453.000000) scale(0.100000,-0.100000)"
fill="#000000" stroke="none">
<path d="M2910 4209 c-485 -63 -869 -474 -906 -970 -5 -62 -4 -90 3 -86 6 4
13 50 16 104 27 492 457 914 957 940 122 6 172 23 65 21 -38 0 -99 -4 -135 -9z"/>
<path d="M2860 3490 c-19 -19 -20 -33 -20 -305 l0 -285 50 0 50 0 2 253 3 252
223 3 222 2 0 50 0 50 -255 0 c-242 0 -256 -1 -275 -20z"/>
<path d="M3000 3210 l0 -50 170 0 170 0 0 50 0 50 -170 0 -170 0 0 -50z"/>
<path d="M3914 2603 c-127 -202 -356 -365 -612 -435 -64 -18 -106 -22 -247
-22 -148 -1 -182 2 -260 23 -102 26 -227 81 -310 136 -31 21 -59 35 -62 31
-14 -14 133 -103 238 -145 394 -157 842 -62 1135 241 94 96 201 248 176 248
-5 0 -31 -35 -58 -77z"/>
<path d="M816 1629 l-26 -20 0 -375 0 -374 65 0 65 0 0 325 0 325 293 2 292 3
3 68 3 67 -334 0 c-323 0 -335 -1 -361 -21z"/>
<path d="M1905 1626 l-25 -25 0 -371 0 -370 65 0 65 0 0 325 0 325 263 -2 262
-3 3 -84 c3 -94 -7 -118 -61 -151 -29 -18 -51 -20 -209 -20 l-176 0 -4 -60
c-1 -33 -1 -65 0 -70 2 -6 27 -10 55 -10 52 -1 52 -1 197 -125 l145 -124 100
0 100 0 -25 20 c-131 109 -250 214 -250 221 0 4 12 10 28 14 105 22 172 70
208 149 20 42 24 66 24 149 0 119 -20 172 -78 208 -36 22 -44 23 -349 26
l-313 3 -25 -25z"/>
<path d="M3134 1338 c218 -446 233 -475 251 -482 30 -11 62 -6 78 12 14 16
387 765 387 777 0 3 -31 5 -70 5 l-69 0 -142 -290 c-78 -160 -146 -290 -151
-290 -4 0 -72 131 -150 290 l-141 290 -73 0 -73 0 153 -312z"/>
<path d="M4190 1255 l0 -395 65 0 65 0 0 395 0 395 -65 0 -65 0 0 -395z"/>
<path d="M4690 1580 l0 -70 160 0 160 0 0 -324 0 -324 29 -4 c16 -2 45 -2 65
0 l36 4 0 324 0 324 160 0 160 0 0 70 0 70 -385 0 -385 0 0 -70z"/>
<path d="M1000 1250 l0 -70 218 2 217 3 3 68 3 67 -221 0 -220 0 0 -70z"/>
<path d="M3065 640 c-18 -20 -32 -20 -749 -21 -402 -1 -711 -5 -686 -10 25 -4
342 -8 706 -8 363 -1 664 -4 667 -8 4 -3 2 -12 -4 -20 -9 -11 -119 -13 -597
-13 -322 0 -582 -3 -578 -7 3 -4 270 -9 593 -12 456 -5 587 -9 591 -18 3 -10
-99 -13 -485 -14 -279 -1 -469 -5 -443 -10 25 -4 252 -8 506 -8 448 -1 461 -2
479 -21 23 -25 37 -25 60 0 18 19 31 20 479 21 254 0 481 4 506 8 26 5 -164 9
-443 10 -386 1 -488 4 -485 14 4 9 133 13 585 17 320 3 585 8 589 13 4 4 -4 7
-17 7 -13 0 -272 0 -576 0 -303 0 -559 3 -567 6 -9 3 -16 12 -16 20 0 12 104
14 668 15 367 0 687 4 712 8 25 5 -283 9 -683 10 -713 1 -729 1 -754 21 -14
11 -29 20 -33 20 -4 0 -15 -9 -25 -20z"/>
</g>
</svg>
