<?xml version="1.0" standalone="no"?>
<!DOCTYPE svg PUBLIC "-//W3C//DTD SVG 20010904//EN"
 "http://www.w3.org/TR/2001/REC-SVG-20010904/DTD/svg10.dtd">
<svg version="1.0" xmlns="http://www.w3.org/2000/svg"
 width="157.000000pt" height="165.000000pt" viewBox="0 0 157.000000 165.000000"
 preserveAspectRatio="xMidYMid meet">

<g transform="translate(0.000000,165.000000) scale(0.100000,-0.100000)"
fill="#000000" stroke="none">
<path d="M780 1601 c-6 -12 -10 -117 -10 -270 0 -161 -4 -251 -10 -251 -6 0
-10 -30 -10 -69 0 -55 -4 -73 -17 -83 -27 -20 -50 -50 -57 -75 -7 -22 -7 -22
31 -7 50 21 189 15 227 -9 34 -23 36 -22 25 16 -5 17 -22 44 -39 59 -28 26
-30 33 -30 98 0 56 -3 70 -15 70 -13 0 -15 35 -15 258 0 187 -3 261 -12 270
-18 18 -56 14 -68 -7z"/>
<path d="M703 815 c-40 -17 -45 -30 -72 -174 -12 -63 -33 -148 -47 -190 -27
-81 -96 -225 -121 -253 -19 -22 -13 -30 46 -67 l49 -30 21 52 c12 29 41 111
65 182 44 129 44 129 45 78 1 -77 -18 -199 -40 -260 -19 -49 -19 -73 0 -73 4
0 18 23 31 51 20 41 26 47 31 32 4 -10 8 -33 8 -51 1 -40 26 -52 111 -52 52 0
232 39 247 54 3 3 -8 32 -25 63 -26 50 -56 133 -48 133 2 0 20 -29 41 -64 21
-36 50 -76 64 -90 l27 -26 29 30 28 29 -27 28 c-55 55 -84 139 -111 314 -25
170 -77 268 -153 289 -53 14 -161 12 -199 -5z"/>
</g>
</svg>
